<svg xmlns="http://www.w3.org/2000/svg" version="1.1" xmlns:xlink="http://www.w3.org/1999/xlink" xmlns:svgjs="http://svgjs.dev/svgjs" width="1000" height="348" viewBox="0 0 1000 348"><g transform="matrix(1,0,0,1,-0.6060268138330116,-0.6163415032728778)"><svg viewBox="0 0 396 138" data-background-color="#ffffff" preserveAspectRatio="xMidYMid meet" height="348" width="1000" xmlns="http://www.w3.org/2000/svg" xmlns:xlink="http://www.w3.org/1999/xlink"><g id="tight-bounds" transform="matrix(1,0,0,1,0.23998695282091376,0.24441406861092219)"><svg viewBox="0 0 395.52 137.5111662971175" height="137.5111662971175" width="395.52"><g><svg viewBox="0 0 395.52 137.5111662971175" height="137.5111662971175" width="395.52"><g><svg viewBox="0 0 395.52 137.5111662971175" height="137.5111662971175" width="395.52"><g id="textblocktransform"><svg viewBox="0 0 395.52 137.5111662971175" height="137.5111662971175" width="395.52" id="textblock"><g><svg viewBox="0 0 395.52 137.5111662971175" height="137.5111662971175" width="395.52"><g transform="matrix(1,0,0,1,0,0)"><svg width="395.52" viewBox="1.3000001907348633 -35.599998474121094 225.49998474121094 75.39999389648438" height="137.5111662971175" data-palette-color="#31c48d"><svg></svg><svg></svg><g class="wordmark-text-0" data-fill-palette-color="primary" id="text-0"><path xmlns="http://www.w3.org/2000/svg" d="M18.75 0.6v0c-3.3 0-6.183-0.75-8.65-2.25-2.467-1.5-4.383-3.6-5.75-6.3-1.367-2.7-2.05-5.85-2.05-9.45v0c0-3.567 0.7-6.717 2.1-9.45 1.4-2.733 3.393-4.873 5.98-6.42 2.58-1.553 5.637-2.33 9.17-2.33v0c4 0 7.333 0.967 10 2.9 2.667 1.933 4.4 4.6 5.2 8v0h-6c-0.533-1.867-1.583-3.333-3.15-4.4-1.567-1.067-3.583-1.6-6.05-1.6v0c-3.667 0-6.55 1.183-8.65 3.55-2.1 2.367-3.15 5.633-3.15 9.8v0c0 4.167 1.033 7.417 3.1 9.75 2.067 2.333 4.817 3.5 8.25 3.5v0c3.467 0 6.077-0.983 7.83-2.95 1.747-1.967 2.77-4.583 3.07-7.85v0h-9.5v-4.1h14.85v19h-4.85l-0.45-5.15c-1.167 1.833-2.633 3.25-4.4 4.25-1.767 1-4.067 1.5-6.9 1.5zM45.15 0h-5.6l12.9-35h5.8l12.8 35h-5.6l-3-8.55h-14.3zM55.3-28.7l-5.65 15.95h11.3zM81.25 0h-5.3v-35h12.05c2.767 0 5.043 0.467 6.83 1.4 1.78 0.933 3.103 2.19 3.97 3.77 0.867 1.587 1.3 3.347 1.3 5.28v0c0 2.167-0.573 4.133-1.72 5.9-1.153 1.767-2.947 3.033-5.38 3.8v0l7.45 14.85h-6.15l-6.8-14.1h-6.25zM81.25-30.55v12.45h6.45c2.4 0 4.16-0.583 5.28-1.75 1.113-1.167 1.67-2.683 1.67-4.55v0c0-1.867-0.55-3.36-1.65-4.48-1.1-1.113-2.883-1.67-5.35-1.67v0zM111.65 0h-5.3v-35h12.05c2.767 0 5.043 0.467 6.83 1.4 1.78 0.933 3.103 2.19 3.97 3.77 0.867 1.587 1.3 3.347 1.3 5.28v0c0 2.167-0.573 4.133-1.72 5.9-1.153 1.767-2.947 3.033-5.38 3.8v0l7.45 14.85h-6.15l-6.8-14.1h-6.25zM111.65-30.55v12.45h6.45c2.4 0 4.16-0.583 5.28-1.75 1.113-1.167 1.67-2.683 1.67-4.55v0c0-1.867-0.55-3.36-1.65-4.48-1.1-1.113-2.883-1.67-5.35-1.67v0zM149.65 0h-5.3v-12.9l-11.6-22.1h6l8.25 16.9 8.2-16.9h5.95l-11.5 22.1z" fill="#31c48d" fill-rule="nonzero" stroke="none" stroke-width="1" stroke-linecap="butt" stroke-linejoin="miter" stroke-miterlimit="10" stroke-dasharray="" stroke-dashoffset="0" font-family="none" font-weight="none" font-size="none" text-anchor="none" style="mix-blend-mode: normal" data-fill-palette-color="primary" opacity="1"></path><path xmlns="http://www.w3.org/2000/svg" d="M6.9 39.2h-5.6l12.9-35h5.8l12.8 35h-5.6l-3-8.55h-14.3zM17.05 10.5l-5.65 15.95h11.3zM43 39.2h-5.3v-35h5.3l17.55 26.35v-26.35h5.3v35h-5.3l-17.55-26.35zM88.55 39.8v0c-3.467 0-6.457-0.76-8.97-2.28-2.52-1.513-4.463-3.63-5.83-6.35-1.367-2.713-2.05-5.853-2.05-9.42v0c0-3.6 0.683-6.76 2.05-9.48 1.367-2.713 3.31-4.837 5.83-6.37 2.513-1.533 5.503-2.3 8.97-2.3v0c4.1 0 7.45 1 10.05 3 2.6 2 4.25 4.8 4.95 8.4v0h-5.9c-0.467-2.033-1.467-3.65-3-4.85-1.533-1.2-3.583-1.8-6.15-1.8v0c-3.5 0-6.267 1.19-8.3 3.57-2.033 2.387-3.05 5.663-3.05 9.83v0c0 4.133 1.017 7.383 3.05 9.75 2.033 2.367 4.8 3.55 8.3 3.55v0c2.567 0 4.617-0.567 6.15-1.7 1.533-1.133 2.533-2.683 3-4.65v0h5.9c-0.7 3.467-2.35 6.183-4.95 8.15-2.6 1.967-5.95 2.95-10.05 2.95zM114.7 39.2h-5.3v-35h5.3v15h16.95v-15h5.3v35h-5.3v-15.65h-16.95zM166.3 39.2h-22.25v-35h22.25v4.3h-16.95v10.9h15.45v4.2h-15.45v11.3h16.95zM186.1 39.2h-5.3v-30.7h-10.35v-4.3h25.95v4.3h-10.3zM200.9 39.2h-5.6l12.9-35h5.8l12.8 35h-5.6l-3-8.55h-14.3zM211.05 10.5l-5.65 15.95h11.3z" fill="#adbfb8" fill-rule="nonzero" stroke="none" stroke-width="1" stroke-linecap="butt" stroke-linejoin="miter" stroke-miterlimit="10" stroke-dasharray="" stroke-dashoffset="0" font-family="none" font-weight="none" font-size="none" text-anchor="none" style="mix-blend-mode: normal" data-fill-palette-color="secondary" opacity="1"></path></g></svg></g></svg></g></svg></g></svg></g></svg></g><defs></defs></svg><rect width="395.52" height="137.5111662971175" fill="none" stroke="none" visibility="hidden"></rect></g></svg></g></svg>