<?xml version="1.0" standalone="no"?>
<!DOCTYPE svg PUBLIC "-//W3C//DTD SVG 20010904//EN"
 "http://www.w3.org/TR/2001/REC-SVG-20010904/DTD/svg10.dtd">
<svg version="1.0" xmlns="http://www.w3.org/2000/svg"
 width="128.000000pt" height="128.000000pt" viewBox="0 0 128.000000 128.000000"
 preserveAspectRatio="xMidYMid meet">
<metadata>
Created by potrace 1.14, written by Peter Selinger 2001-2017
</metadata>
<g transform="translate(0.000000,128.000000) scale(0.100000,-0.100000)"
fill="#000000" stroke="none">
<path d="M301 889 c-18 -6 -57 -34 -85 -62 -41 -42 -54 -63 -64 -105 -43 -189
43 -334 207 -349 70 -7 118 8 160 48 l31 29 0 -34 c0 -37 19 -49 56 -36 19 8
20 16 20 141 l-1 134 -106 3 c-104 3 -107 2 -111 -21 -7 -38 -1 -42 67 -40 60
2 65 0 65 -20 0 -11 -9 -39 -20 -62 -27 -55 -78 -80 -150 -73 -63 6 -98 31
-128 88 -31 62 -27 172 9 225 33 49 89 75 153 71 60 -4 87 -18 110 -58 14 -23
24 -28 56 -28 21 0 41 4 44 9 3 4 -7 28 -23 53 -39 61 -106 94 -192 96 -35 0
-79 -4 -98 -9z"/>
<path d="M851 820 c-47 -118 -161 -430 -161 -438 0 -10 71 -5 80 5 4 4 15 31
24 60 9 28 22 53 29 55 7 2 54 4 106 3 l95 -1 19 -58 c20 -61 40 -77 84 -68
18 3 22 9 18 21 -7 15 -22 57 -126 339 -27 73 -49 137 -49 142 0 6 -6 10 -12
11 -84 5 -75 10 -107 -71z m112 -147 c20 -57 35 -103 34 -104 -7 -4 -157 -3
-157 1 0 20 76 218 81 212 4 -4 23 -53 42 -109z"/>
</g>
</svg>
